<svg xmlns="http://www.w3.org/2000/svg" viewBox="0 0 460 320" font-family="sans-serif">
<defs><clipPath id="ahead"><rect x="148" y="10" width="250" height="300"/></clipPath></defs>
<circle cx="46" cy="160" r="7" fill="hsl(38,75%,52%)"/>
<text x="46" y="188" text-anchor="middle" font-size="12" fill="#5a6270">光源</text>
<line x1="53" y1="160" x2="72" y2="160" stroke="hsl(38,75%,52%)" stroke-width="1.5" opacity=".45"/>
<line x1="53" y1="160" x2="98" y2="160" stroke="hsl(38,75%,52%)" stroke-width="1.5" opacity=".45"/>
<line x1="53" y1="160" x2="124" y2="160" stroke="hsl(38,75%,52%)" stroke-width="1.5" opacity=".45"/>
<line x1="53" y1="160" x2="130" y2="160" stroke="hsl(38,75%,52%)" stroke-width="1.5" opacity=".45"/>
<rect x="132" y="18" width="9" height="108" fill="#23272f"/>
<rect x="132" y="132" width="9" height="188" fill="#23272f"/>
<rect x="132" y="212" width="9" height="302" fill="#23272f"/>
<g clip-path="url(#ahead)">
<circle cx="138" cy="120" r="30" fill="none" stroke="hsl(215,60%,52%)" stroke-width="1.2" opacity="0.56"/>
<circle cx="138" cy="200" r="30" fill="none" stroke="hsl(215,60%,52%)" stroke-width="1.2" opacity="0.56"/>
<circle cx="138" cy="120" r="60" fill="none" stroke="hsl(215,60%,52%)" stroke-width="1.2" opacity="0.5"/>
<circle cx="138" cy="200" r="60" fill="none" stroke="hsl(215,60%,52%)" stroke-width="1.2" opacity="0.5"/>
<circle cx="138" cy="120" r="90" fill="none" stroke="hsl(215,60%,52%)" stroke-width="1.2" opacity="0.44"/>
<circle cx="138" cy="200" r="90" fill="none" stroke="hsl(215,60%,52%)" stroke-width="1.2" opacity="0.44"/>
<circle cx="138" cy="120" r="120" fill="none" stroke="hsl(215,60%,52%)" stroke-width="1.2" opacity="0.38"/>
<circle cx="138" cy="200" r="120" fill="none" stroke="hsl(215,60%,52%)" stroke-width="1.2" opacity="0.38"/>
<circle cx="138" cy="120" r="150" fill="none" stroke="hsl(215,60%,52%)" stroke-width="1.2" opacity="0.32"/>
<circle cx="138" cy="200" r="150" fill="none" stroke="hsl(215,60%,52%)" stroke-width="1.2" opacity="0.32"/>
<circle cx="138" cy="120" r="180" fill="none" stroke="hsl(215,60%,52%)" stroke-width="1.2" opacity="0.26"/>
<circle cx="138" cy="200" r="180" fill="none" stroke="hsl(215,60%,52%)" stroke-width="1.2" opacity="0.26"/>
<circle cx="138" cy="120" r="210" fill="none" stroke="hsl(215,60%,52%)" stroke-width="1.2" opacity="0.2"/>
<circle cx="138" cy="200" r="210" fill="none" stroke="hsl(215,60%,52%)" stroke-width="1.2" opacity="0.2"/>
<circle cx="138" cy="120" r="240" fill="none" stroke="hsl(215,60%,52%)" stroke-width="1.2" opacity="0.14"/>
<circle cx="138" cy="200" r="240" fill="none" stroke="hsl(215,60%,52%)" stroke-width="1.2" opacity="0.14"/>
</g>
<line x1="400" y1="14" x2="400" y2="306" stroke="#23272f" stroke-width="2.5"/>
<rect x="403" y="18" width="15" height="4" fill="hsl(215,60%,52%)" opacity="0.061"/>
<rect x="403" y="22" width="15" height="4" fill="hsl(215,60%,52%)" opacity="0.079"/>
<rect x="403" y="26" width="15" height="4" fill="hsl(215,60%,52%)" opacity="0.156"/>
<rect x="403" y="30" width="15" height="4" fill="hsl(215,60%,52%)" opacity="0.284"/>
<rect x="403" y="34" width="15" height="4" fill="hsl(215,60%,52%)" opacity="0.448"/>
<rect x="403" y="38" width="15" height="4" fill="hsl(215,60%,52%)" opacity="0.626"/>
<rect x="403" y="42" width="15" height="4" fill="hsl(215,60%,52%)" opacity="0.793"/>
<rect x="403" y="46" width="15" height="4" fill="hsl(215,60%,52%)" opacity="0.923"/>
<rect x="403" y="50" width="15" height="4" fill="hsl(215,60%,52%)" opacity="0.993"/>
<rect x="403" y="54" width="15" height="4" fill="hsl(215,60%,52%)" opacity="0.988"/>
<rect x="403" y="58" width="15" height="4" fill="hsl(215,60%,52%)" opacity="0.906"/>
<rect x="403" y="62" width="15" height="4" fill="hsl(215,60%,52%)" opacity="0.758"/>
<rect x="403" y="66" width="15" height="4" fill="hsl(215,60%,52%)" opacity="0.567"/>
<rect x="403" y="70" width="15" height="4" fill="hsl(215,60%,52%)" opacity="0.367"/>
<rect x="403" y="74" width="15" height="4" fill="hsl(215,60%,52%)" opacity="0.195"/>
<rect x="403" y="78" width="15" height="4" fill="hsl(215,60%,52%)" opacity="0.086"/>
<rect x="403" y="82" width="15" height="4" fill="hsl(215,60%,52%)" opacity="0.063"/>
<rect x="403" y="86" width="15" height="4" fill="hsl(215,60%,52%)" opacity="0.135"/>
<rect x="403" y="90" width="15" height="4" fill="hsl(215,60%,52%)" opacity="0.289"/>
<rect x="403" y="94" width="15" height="4" fill="hsl(215,60%,52%)" opacity="0.496"/>
<rect x="403" y="98" width="15" height="4" fill="hsl(215,60%,52%)" opacity="0.712"/>
<rect x="403" y="102" width="15" height="4" fill="hsl(215,60%,52%)" opacity="0.890"/>
<rect x="403" y="106" width="15" height="4" fill="hsl(215,60%,52%)" opacity="0.989"/>
<rect x="403" y="110" width="15" height="4" fill="hsl(215,60%,52%)" opacity="0.984"/>
<rect x="403" y="114" width="15" height="4" fill="hsl(215,60%,52%)" opacity="0.873"/>
<rect x="403" y="118" width="15" height="4" fill="hsl(215,60%,52%)" opacity="0.681"/>
<rect x="403" y="122" width="15" height="4" fill="hsl(215,60%,52%)" opacity="0.451"/>
<rect x="403" y="126" width="15" height="4" fill="hsl(215,60%,52%)" opacity="0.240"/>
<rect x="403" y="130" width="15" height="4" fill="hsl(215,60%,52%)" opacity="0.098"/>
<rect x="403" y="134" width="15" height="4" fill="hsl(215,60%,52%)" opacity="0.062"/>
<rect x="403" y="138" width="15" height="4" fill="hsl(215,60%,52%)" opacity="0.142"/>
<rect x="403" y="142" width="15" height="4" fill="hsl(215,60%,52%)" opacity="0.320"/>
<rect x="403" y="146" width="15" height="4" fill="hsl(215,60%,52%)" opacity="0.551"/>
<rect x="403" y="150" width="15" height="4" fill="hsl(215,60%,52%)" opacity="0.777"/>
<rect x="403" y="154" width="15" height="4" fill="hsl(215,60%,52%)" opacity="0.940"/>
<rect x="403" y="158" width="15" height="4" fill="hsl(215,60%,52%)" opacity="1.000"/>
<rect x="403" y="162" width="15" height="4" fill="hsl(215,60%,52%)" opacity="0.940"/>
<rect x="403" y="166" width="15" height="4" fill="hsl(215,60%,52%)" opacity="0.777"/>
<rect x="403" y="170" width="15" height="4" fill="hsl(215,60%,52%)" opacity="0.551"/>
<rect x="403" y="174" width="15" height="4" fill="hsl(215,60%,52%)" opacity="0.320"/>
<rect x="403" y="178" width="15" height="4" fill="hsl(215,60%,52%)" opacity="0.142"/>
<rect x="403" y="182" width="15" height="4" fill="hsl(215,60%,52%)" opacity="0.062"/>
<rect x="403" y="186" width="15" height="4" fill="hsl(215,60%,52%)" opacity="0.098"/>
<rect x="403" y="190" width="15" height="4" fill="hsl(215,60%,52%)" opacity="0.240"/>
<rect x="403" y="194" width="15" height="4" fill="hsl(215,60%,52%)" opacity="0.451"/>
<rect x="403" y="198" width="15" height="4" fill="hsl(215,60%,52%)" opacity="0.681"/>
<rect x="403" y="202" width="15" height="4" fill="hsl(215,60%,52%)" opacity="0.873"/>
<rect x="403" y="206" width="15" height="4" fill="hsl(215,60%,52%)" opacity="0.984"/>
<rect x="403" y="210" width="15" height="4" fill="hsl(215,60%,52%)" opacity="0.989"/>
<rect x="403" y="214" width="15" height="4" fill="hsl(215,60%,52%)" opacity="0.890"/>
<rect x="403" y="218" width="15" height="4" fill="hsl(215,60%,52%)" opacity="0.712"/>
<rect x="403" y="222" width="15" height="4" fill="hsl(215,60%,52%)" opacity="0.496"/>
<rect x="403" y="226" width="15" height="4" fill="hsl(215,60%,52%)" opacity="0.289"/>
<rect x="403" y="230" width="15" height="4" fill="hsl(215,60%,52%)" opacity="0.135"/>
<rect x="403" y="234" width="15" height="4" fill="hsl(215,60%,52%)" opacity="0.063"/>
<rect x="403" y="238" width="15" height="4" fill="hsl(215,60%,52%)" opacity="0.086"/>
<rect x="403" y="242" width="15" height="4" fill="hsl(215,60%,52%)" opacity="0.195"/>
<rect x="403" y="246" width="15" height="4" fill="hsl(215,60%,52%)" opacity="0.367"/>
<rect x="403" y="250" width="15" height="4" fill="hsl(215,60%,52%)" opacity="0.567"/>
<rect x="403" y="254" width="15" height="4" fill="hsl(215,60%,52%)" opacity="0.758"/>
<rect x="403" y="258" width="15" height="4" fill="hsl(215,60%,52%)" opacity="0.906"/>
<rect x="403" y="262" width="15" height="4" fill="hsl(215,60%,52%)" opacity="0.988"/>
<rect x="403" y="266" width="15" height="4" fill="hsl(215,60%,52%)" opacity="0.993"/>
<rect x="403" y="270" width="15" height="4" fill="hsl(215,60%,52%)" opacity="0.923"/>
<rect x="403" y="274" width="15" height="4" fill="hsl(215,60%,52%)" opacity="0.793"/>
<rect x="403" y="278" width="15" height="4" fill="hsl(215,60%,52%)" opacity="0.626"/>
<rect x="403" y="282" width="15" height="4" fill="hsl(215,60%,52%)" opacity="0.448"/>
<rect x="403" y="286" width="15" height="4" fill="hsl(215,60%,52%)" opacity="0.284"/>
<rect x="403" y="290" width="15" height="4" fill="hsl(215,60%,52%)" opacity="0.156"/>
<rect x="403" y="294" width="15" height="4" fill="hsl(215,60%,52%)" opacity="0.079"/>
<rect x="403" y="298" width="15" height="4" fill="hsl(215,60%,52%)" opacity="0.061"/>
<text x="434" y="40" text-anchor="end" font-size="12" fill="hsl(215,60%,52%)">干渉縞</text>
<text x="133" y="100" text-anchor="middle" font-size="12" fill="#5a6270">スリット</text>
<text x="133" y="324" text-anchor="end" font-size="12" fill="#5a6270">スクリーン</text>
<text x="24" y="316" font-size="11" fill="#5a6270">スリット 2 つを通った光が、スクリーンで強め合ったり弱め合ったりする</text>
</svg>
