<svg xmlns="http://www.w3.org/2000/svg" viewBox="0 0 640 320" font-family="sans-serif">
<style>
.ax{stroke:#2b3240}
.lb{fill:#59616f}
.st{stroke:#d5dae3}
@media (prefers-color-scheme: dark){
  .ax{stroke:#8d95a5}
  .lb{fill:#aab2c0}
  .st{stroke:#39404f}
}
</style>
<rect x="363.5" y="40.0" width="43.0" height="210.0" fill="hsl(160,55%,38%)" opacity="0.13"/>
<text x="385.0" y="56.0" font-size="12" text-anchor="middle" font-weight="normal" fill="hsl(160,55%,38%)">20 分の昼寝</text>
<rect x="406.5" y="40.0" width="43.0" height="210.0" fill="#a8483f" opacity="0.13"/>
<text x="428.0" y="56.0" font-size="12" text-anchor="middle" font-weight="normal" fill="#a8483f">眠らない(眠りは夜まで待つ)</text>
<rect x="514.0" y="40.0" width="43.0" height="210.0" fill="hsl(32,80%,38%)" opacity="0.13"/>
<text x="535.5" y="56.0" font-size="12" text-anchor="middle" font-weight="normal" fill="hsl(32,80%,38%)">眠気に負ける(寝落ち)</text>
<line x1="84.0" y1="250.0" x2="84.0" y2="40.0" class="st" stroke-width="1"/>
<text x="84.0" y="268.0" font-size="12" text-anchor="middle" font-weight="normal" fill="#59616f">0時</text>
<line x1="148.5" y1="250.0" x2="148.5" y2="40.0" class="st" stroke-width="1"/>
<text x="148.5" y="268.0" font-size="12" text-anchor="middle" font-weight="normal" fill="#59616f">3時</text>
<line x1="213.0" y1="250.0" x2="213.0" y2="40.0" class="st" stroke-width="1"/>
<text x="213.0" y="268.0" font-size="12" text-anchor="middle" font-weight="normal" fill="#59616f">6時</text>
<line x1="277.5" y1="250.0" x2="277.5" y2="40.0" class="st" stroke-width="1"/>
<text x="277.5" y="268.0" font-size="12" text-anchor="middle" font-weight="normal" fill="#59616f">9時</text>
<line x1="342.0" y1="250.0" x2="342.0" y2="40.0" class="st" stroke-width="1"/>
<text x="342.0" y="268.0" font-size="12" text-anchor="middle" font-weight="normal" fill="#59616f">12時</text>
<line x1="406.5" y1="250.0" x2="406.5" y2="40.0" class="st" stroke-width="1"/>
<text x="406.5" y="268.0" font-size="12" text-anchor="middle" font-weight="normal" fill="#59616f">15時</text>
<line x1="471.0" y1="250.0" x2="471.0" y2="40.0" class="st" stroke-width="1"/>
<text x="471.0" y="268.0" font-size="12" text-anchor="middle" font-weight="normal" fill="#59616f">18時</text>
<line x1="535.5" y1="250.0" x2="535.5" y2="40.0" class="st" stroke-width="1"/>
<text x="535.5" y="268.0" font-size="12" text-anchor="middle" font-weight="normal" fill="#59616f">21時</text>
<line x1="600.0" y1="250.0" x2="600.0" y2="40.0" class="st" stroke-width="1"/>
<text x="600.0" y="268.0" font-size="12" text-anchor="middle" font-weight="normal" fill="#59616f">24時</text>
<line x1="84.0" y1="250.0" x2="600.0" y2="250.0" class="ax" stroke-width="1.5"/>
<line x1="84.0" y1="40.0" x2="84.0" y2="250.0" class="ax" stroke-width="1.5"/>
<path d="M84.0,182.4 L86.2,178.0 L88.3,173.4 L90.5,168.5 L92.6,163.5 L94.8,158.3 L96.9,152.9 L99.0,147.5 L101.2,141.9 L103.3,136.3 L105.5,130.7 L107.7,125.1 L109.8,119.7 L112.0,114.4 L114.1,109.2 L116.2,104.3 L118.4,99.7 L120.5,95.5 L122.7,91.6 L124.8,88.1 L127.0,85.1 L129.2,82.7 L131.3,80.7 L133.4,79.3 L135.6,78.4 L137.8,78.1 L139.9,78.4 L142.1,79.3 L144.2,80.7 L146.3,82.7 L148.5,85.1 L150.7,88.1 L152.8,91.6 L154.9,95.5 L157.1,99.7 L159.2,104.3 L161.4,109.2 L163.6,114.4 L165.7,119.7 L167.9,125.1 L170.0,130.7 L172.1,136.3 L174.3,141.9 L176.4,147.5 L178.6,152.9 L180.8,158.3 L182.9,163.5 L185.1,168.5 L187.2,173.4 L189.4,178.0 L191.5,182.4 L193.6,186.5 L195.8,190.4 L197.9,194.0 L200.1,197.4 L202.2,200.5 L204.4,203.4 L206.6,206.0 L208.7,208.4 L210.9,210.5 L213.0,212.5 L215.2,214.2 L217.3,215.8 L219.5,217.2 L221.6,218.4 L223.8,219.5 L225.9,220.5 L228.1,221.3 L230.2,222.0 L232.4,222.6 L234.5,223.2 L236.7,223.6 L238.8,224.0 L240.9,224.4 L243.1,224.6 L245.2,224.9 L247.4,225.1 L249.6,225.2 L251.7,225.4 L253.8,225.5 L256.0,225.6 L258.1,225.6 L260.3,225.7 L262.5,225.7 L264.6,225.8 L266.8,225.8 L268.9,225.8 L271.0,225.8 L273.2,225.7 L275.4,225.7 L277.5,225.7 L279.6,225.6 L281.8,225.5 L284.0,225.4 L286.1,225.3 L288.2,225.1 L290.4,224.9 L292.5,224.7 L294.7,224.4 L296.9,224.1 L299.0,223.8 L301.1,223.3 L303.3,222.8 L305.5,222.3 L307.6,221.6 L309.8,220.9 L311.9,220.0 L314.0,219.0 L316.2,218.0 L318.4,216.7 L320.5,215.4 L322.6,213.9 L324.8,212.3 L327.0,210.5 L329.1,208.6 L331.2,206.5 L333.4,204.2 L335.5,201.8 L337.7,199.3 L339.9,196.6 L342.0,193.8 L344.1,190.9 L346.3,187.9 L348.5,184.8 L350.6,181.7 L352.8,178.5 L354.9,175.3 L357.1,172.2 L359.2,169.1 L361.3,166.2 L363.5,163.3 L365.6,160.6 L367.8,158.1 L369.9,155.8 L372.1,153.7 L374.2,151.9 L376.4,150.4 L378.6,149.3 L380.7,148.4 L382.9,147.9 L385.0,147.7 L387.2,147.9 L389.3,148.4 L391.4,149.3 L393.6,150.4 L395.8,151.9 L397.9,153.7 L400.0,155.8 L402.2,158.1 L404.4,160.6 L406.5,163.3 L408.6,166.2 L410.8,169.1 L413.0,172.2 L415.1,175.3 L417.2,178.5 L419.4,181.7 L421.6,184.8 L423.7,187.9 L425.8,190.9 L428.0,193.8 L430.2,196.6 L432.3,199.3 L434.4,201.8 L436.6,204.2 L438.8,206.5 L440.9,208.6 L443.1,210.5 L445.2,212.3 L447.3,213.9 L449.5,215.4 L451.7,216.7 L453.8,218.0 L455.9,219.0 L458.1,220.0 L460.2,220.9 L462.4,221.6 L464.5,222.3 L466.7,222.8 L468.8,223.3 L471.0,223.8 L473.2,224.1 L475.3,224.4 L477.5,224.7 L479.6,224.9 L481.8,225.1 L483.9,225.3 L486.1,225.4 L488.2,225.5 L490.3,225.6 L492.5,225.7 L494.7,225.8 L496.8,225.8 L498.9,225.8 L501.1,225.9 L503.2,225.9 L505.4,225.9 L507.6,225.9 L509.7,226.0 L511.8,226.0 L514.0,226.0 L516.2,226.0 L518.3,226.0 L520.5,226.0 L522.6,226.0 L524.8,226.0 L526.9,226.0 L529.0,226.0 L531.2,226.0 L533.3,226.0 L535.5,226.0 L537.7,226.0 L539.8,226.0 L542.0,226.0 L544.1,226.0 L546.2,226.0 L548.4,226.0 L550.5,226.0 L552.7,226.0 L554.8,226.0 L557.0,226.0 L559.2,226.0 L561.3,226.0 L563.5,226.0 L565.6,226.0 L567.8,226.0 L569.9,226.0 L572.0,226.0 L574.2,226.0 L576.3,226.0 L578.5,226.0 L580.7,226.0 L582.8,226.0 L585.0,226.0 L587.1,226.0 L589.2,226.0 L591.4,226.0 L593.5,226.0 L595.7,226.0 L597.8,226.0 L600.0,226.0" fill="none" stroke="hsl(265,62%,50%)" stroke-width="2.6"/>
<text x="90.0" y="52.0" font-size="12" text-anchor="start" font-weight="normal" fill="#7c8494">眠気</text>
<text x="600.0" y="288.0" font-size="12" text-anchor="end" font-weight="normal" fill="#59616f">1 日の中の眠気と、眠ってよい時間帯</text>
</svg>
