<svg xmlns="http://www.w3.org/2000/svg" viewBox="0 0 680 340" font-family="sans-serif">
<rect width="680" height="340" fill="#ffffff"/>
<line x1="72" y1="272.0" x2="640" y2="272.0" stroke="#eceff4"/><text x="63" y="276.0" text-anchor="end" font-size="12" fill="#5a6270">0%</text><line x1="72" y1="202.9" x2="640" y2="202.9" stroke="#eceff4"/><text x="63" y="206.9" text-anchor="end" font-size="12" fill="#5a6270">20%</text><line x1="72" y1="133.7" x2="640" y2="133.7" stroke="#eceff4"/><text x="63" y="137.7" text-anchor="end" font-size="12" fill="#5a6270">40%</text><line x1="72" y1="64.6" x2="640" y2="64.6" stroke="#eceff4"/><text x="63" y="68.6" text-anchor="end" font-size="12" fill="#5a6270">60%</text>
<path d="M72.0,63.2 L75.6,64.8 L79.1,66.3 L82.7,67.8 L86.3,69.4 L89.9,70.9 L93.4,72.4 L97.0,73.9 L100.6,75.3 L104.2,76.8 L107.7,78.3 L111.3,79.7 L114.9,81.1 L118.4,82.6 L122.0,84.0 L125.6,85.4 L129.2,86.8 L132.7,88.1 L136.3,89.5 L139.9,90.9 L143.4,92.2 L147.0,93.6 L150.6,94.9 L154.2,96.2 L157.7,97.5 L161.3,98.8 L164.9,100.1 L168.5,101.4 L172.0,102.7 L175.6,103.9 L179.2,105.2 L182.7,106.4 L186.3,107.7 L189.9,108.9 L193.5,110.1 L197.0,111.3 L200.6,112.5 L204.2,113.7 L207.7,114.9 L211.3,116.0 L214.9,117.2 L218.5,118.4 L222.0,119.5 L225.6,120.6 L229.2,121.8 L232.8,122.9 L236.3,124.0 L239.9,125.1 L243.5,126.2 L247.0,127.3 L250.6,128.4 L254.2,129.4 L257.8,130.5 L261.3,131.6 L264.9,132.6 L268.5,133.6 L272.1,134.7 L275.6,135.7 L279.2,136.7 L282.8,137.7 L286.3,138.7 L289.9,139.7 L293.5,140.7 L297.1,141.7 L300.6,142.6 L304.2,143.6 L307.8,144.6 L311.3,145.5 L314.9,146.5 L318.5,147.4 L322.1,148.3 L325.6,149.2 L329.2,150.2 L332.8,151.1 L336.4,152.0 L339.9,152.9 L343.5,153.8 L347.1,154.6 L350.6,155.5 L354.2,156.4 L357.8,157.2 L361.4,158.1 L364.9,158.9 L368.5,159.8 L372.1,160.6 L375.6,161.5 L379.2,162.3 L382.8,163.1 L386.4,163.9 L389.9,164.7 L393.5,165.5 L397.1,166.3 L400.7,167.1 L404.2,167.9 L407.8,168.7 L411.4,169.4 L414.9,170.2 L418.5,170.9 L422.1,171.7 L425.7,172.4 L429.2,173.2 L432.8,173.9 L436.4,174.7 L439.9,175.4 L443.5,176.1 L447.1,176.8 L450.7,177.5 L454.2,178.2 L457.8,178.9 L461.4,179.6 L465.0,180.3 L468.5,181.0 L472.1,181.7 L475.7,182.3 L479.2,183.0 L482.8,183.7 L486.4,184.3 L490.0,185.0 L493.5,185.6 L497.1,186.3 L500.7,186.9 L504.3,187.6 L507.8,188.2 L511.4,188.8 L515.0,189.4 L518.5,190.0 L522.1,190.7 L525.7,191.3 L529.3,191.9 L532.8,192.5 L536.4,193.1 L540.0,193.6 L543.5,194.2 L547.1,194.8 L550.7,195.4 L554.3,196.0 L557.8,196.5 L561.4,197.1 L565.0,197.6 L568.6,198.2 L572.1,198.7 L575.7,199.3 L579.3,199.8 L582.8,200.4 L586.4,200.9 L590.0,201.4 L593.6,202.0 L597.1,202.5 L600.7,203.0 L604.3,203.5 L607.8,204.0 L611.4,204.5 L615.0,205.0 L618.6,205.5 L622.1,206.0 L625.7,206.5 L629.3,207.0 L632.9,207.5 L636.4,208.0 L640.0,208.5" fill="none" stroke="#9aa3b2" stroke-width="2" stroke-dasharray="6 4"/>
<path d="M119.5,70.8 L185.6,119.2 L317.8,148.2 L376.8,155.5 L418.5,175.9 L484.6,184.2 L583.4,199.1" fill="none" stroke="#1f6f5c" stroke-width="2.5"/>
<circle cx="119.5" cy="70.8" r="4.2" fill="#1f6f5c"/><text x="119.5" y="59.8" text-anchor="middle" font-size="11" fill="#1f6f5c">58</text><circle cx="185.6" cy="119.2" r="4.2" fill="#1f6f5c"/><text x="185.6" y="108.2" text-anchor="middle" font-size="11" fill="#1f6f5c">44</text><circle cx="317.8" cy="148.2" r="4.2" fill="#1f6f5c"/><text x="317.8" y="137.2" text-anchor="middle" font-size="11" fill="#1f6f5c">35</text><circle cx="376.8" cy="155.5" r="4.2" fill="#1f6f5c"/><text x="376.8" y="144.5" text-anchor="middle" font-size="11" fill="#1f6f5c">33</text><circle cx="418.5" cy="175.9" r="4.2" fill="#1f6f5c"/><text x="418.5" y="164.9" text-anchor="middle" font-size="11" fill="#1f6f5c">27</text><circle cx="484.6" cy="184.2" r="4.2" fill="#1f6f5c"/><text x="484.6" y="173.2" text-anchor="middle" font-size="11" fill="#1f6f5c">25</text><circle cx="583.4" cy="199.1" r="4.2" fill="#1f6f5c"/><text x="583.4" y="188.1" text-anchor="middle" font-size="11" fill="#1f6f5c">21</text>
<line x1="119.5" y1="272" x2="119.5" y2="279" stroke="#8a93a3"/><text x="119.5" y="296" text-anchor="middle" font-size="12" fill="#5a6270">20分</text><line x1="185.6" y1="272" x2="185.6" y2="279" stroke="#8a93a3"/><text x="185.6" y="296" text-anchor="middle" font-size="12" fill="#5a6270">1時間</text><line x1="317.8" y1="272" x2="317.8" y2="279" stroke="#8a93a3"/><text x="317.8" y="296" text-anchor="middle" font-size="12" fill="#5a6270">9時間</text><line x1="376.8" y1="272" x2="376.8" y2="279" stroke="#8a93a3"/><text x="376.8" y="296" text-anchor="middle" font-size="12" fill="#5a6270">1日</text><line x1="418.5" y1="272" x2="418.5" y2="279" stroke="#8a93a3"/><text x="418.5" y="296" text-anchor="middle" font-size="12" fill="#5a6270">2日</text><line x1="484.6" y1="272" x2="484.6" y2="279" stroke="#8a93a3"/><text x="484.6" y="296" text-anchor="middle" font-size="12" fill="#5a6270">6日</text><line x1="583.4" y1="272" x2="583.4" y2="279" stroke="#8a93a3"/><text x="583.4" y="296" text-anchor="middle" font-size="12" fill="#5a6270">31日</text>
<line x1="72" y1="272" x2="640" y2="272" stroke="#23272f" stroke-width="1.2"/>
<line x1="72" y1="30" x2="72" y2="272" stroke="#23272f" stroke-width="1.2"/>
<text x="356" y="324" text-anchor="middle" font-size="13" fill="#23272f">学習後の経過時間(対数目盛)</text>
<text x="16" y="48" font-size="13" fill="#23272f">保持率</text>
<text x="640" y="48" text-anchor="end" font-size="12" fill="#5a6270">実線: Ebbinghaus(1885)の実測値 / 破線: べき近似 R = 0.319 t^-0.126</text>
</svg>